HIERARCHY
ROOT Hips
{
	OFFSET 0.000000 0.000000 0.000000
	CHANNELS 6 Xposition Yposition Zposition Zrotation Yrotation Xrotation 
	JOINT LHipJoint
	{
		OFFSET 0.000000 0.000000 0.000000
		CHANNELS 3 Zrotation Yrotation Xrotation
		JOINT LeftUpLeg
		{
			OFFSET 1.363060 -1.794630 0.839290
			CHANNELS 3 Zrotation Yrotation Xrotation
			JOINT LeftLeg
			{
				OFFSET 2.448110 -6.726130 0.000000
				CHANNELS 3 Zrotation Yrotation Xrotation
				JOINT LeftFoot
				{
					OFFSET 2.562200 -7.039590 0.000000
					CHANNELS 3 Zrotation Yrotation Xrotation
					JOINT LeftToeBase
					{
						OFFSET 0.157640 -0.433110 2.322550
						CHANNELS 3 Zrotation Yrotation Xrotation
						End Site
						{
							OFFSET 0.000000 0.000000 0.000000
						}
					}
				}
			}
		}
	}
	JOINT RHipJoint
	{
		OFFSET 0.000000 0.000000 0.000000
		CHANNELS 3 Zrotation Yrotation Xrotation
		JOINT RightUpLeg
		{
			OFFSET -1.305520 -1.794630 0.839290
			CHANNELS 3 Zrotation Yrotation Xrotation
			JOINT RightLeg
			{
				OFFSET -2.542530 -6.985550 0.000000
				CHANNELS 3 Zrotation Yrotation Xrotation
				JOINT RightFoot
				{
					OFFSET -2.568260 -7.056230 0.000000
					CHANNELS 3 Zrotation Yrotation Xrotation
					JOINT RightToeBase
					{
						OFFSET -0.164730 -0.452590 2.363150
						CHANNELS 3 Zrotation Yrotation Xrotation
						End Site
						{
							OFFSET 0.000000 0.000000 0.000000
						}
					}
				}
			}
		}
	}
}
MOTION
Frames: 28
Frame Time: 0.008333
2.494950 16.994819 0.873936 -0.439358 78.708873 3.055948 -10.027931 0.733057 1.980493 -13.556440 7.465307 -31.337249 -2.572247 -0.319507 11.872106 1.240214 7.206473 -3.196866 0.791800 0.000000 -30.125199 9.614269 -4.125155 -0.965773 0.731471 -8.975255 13.286917 1.112464 -2.091641 19.304392 0.813156 12.475026 16.747274 4.684100 0.000000 -85.110800
2.756698 16.987183 0.879129 0.729113 78.628969 3.834504 -10.092969 0.824500 1.871323 -13.585938 7.328031 -30.847186 -2.463921 -0.107212 13.846481 1.269840 7.510234 -2.940805 0.835100 0.000000 -29.057100 9.795290 -4.149799 -1.075012 -0.282270 -9.460003 12.494625 0.788920 -2.331567 22.317175 0.648589 13.418754 19.613087 5.740300 0.000000 -86.926300
3.015064 16.979158 0.886403 2.048049 78.624503 4.770090 -10.150822 0.917511 1.735839 -13.740561 7.362893 -30.395139 -2.373064 0.088798 15.779718 1.297192 7.775928 -2.803612 0.857300 0.000000 -27.727800 9.986765 -4.141141 -1.185439 -1.283431 -10.038574 11.500879 0.460286 -2.529173 25.537761 0.424739 13.932746 22.437283 6.674500 -0.000000 -87.692800
3.269489 16.970705 0.895712 3.484351 78.699678 5.847582 -10.198985 1.007606 1.587049 -13.981411 7.510654 -29.973464 -2.299573 0.263744 17.631883 1.322974 7.998040 -2.834241 0.850300 0.000000 -26.172000 10.180818 -4.097852 -1.297519 -2.222432 -10.678752 10.323441 0.144701 -2.685846 28.917738 0.152670 13.817002 25.082577 7.288400 0.000000 -87.252700
3.519532 16.961996 0.907196 5.075983 78.852556 7.110467 -10.234182 1.093124 1.437174 -14.282942 7.702275 -29.549268 -2.243430 0.414473 19.356933 1.348510 8.180921 -3.061196 0.809600 -0.000000 -24.466100 10.372711 -4.019053 -1.416926 -3.079048 -11.363908 8.990462 -0.144666 -2.809734 32.405632 -0.154032 12.924172 27.392387 7.391299 -0.000000 -85.521000
3.765214 16.953282 0.920521 6.790620 79.077843 8.532308 -10.255408 1.171782 1.294561 -14.613458 7.888591 -29.102450 -2.204189 0.540416 20.938545 1.372604 8.311001 -3.507542 0.729500 0.000000 -22.652300 10.557286 -3.909633 -1.546659 -3.822631 -12.074759 7.527702 -0.399587 -2.913465 35.946155 -0.482583 11.174845 29.197636 6.845800 0.000000 -82.540500
4.006809 16.945042 0.935036 8.559717 79.360325 10.046782 -10.263289 1.242692 1.165797 -14.939866 8.033295 -28.612777 -2.180663 0.642454 22.366744 1.394107 8.375882 -4.177439 0.608000 0.000000 -20.766800 10.729782 -3.775826 -1.687845 -4.424446 -12.789605 5.958175 -0.619343 -3.010364 39.480531 -0.821981 8.595017 30.339802 5.625100 0.000000 -78.518000
4.244844 16.937830 0.950341 10.362190 79.683050 11.629851 -10.258506 1.305776 1.055864 -15.241725 8.101335 -28.046754 -2.171057 0.720858 23.617905 1.413625 8.380250 -5.044640 0.450400 -0.000000 -18.877700 10.888320 -3.624039 -1.841710 -4.877709 -13.491846 4.304660 -0.808287 -3.112439 42.947040 -1.162263 5.339925 30.697186 3.845300 0.000000 -73.778500
4.479963 16.932373 0.965841 12.134992 80.022910 13.216753 -10.243088 1.361839 0.967899 -15.499819 8.073643 -27.381251 -2.173001 0.776871 24.674491 1.432285 8.333937 -6.066117 0.265800 0.000000 -17.051500 11.030754 -3.460726 -2.005398 -5.173176 -14.156577 2.581812 -0.973397 -3.227459 46.285183 -1.493129 1.666312 30.208231 1.740900 -0.000000 -68.682999
4.712944 16.929335 0.981094 13.821588 80.355884 14.749318 -10.219292 1.412350 0.903507 -15.703643 7.940090 -26.597596 -2.183779 0.811886 25.517414 1.452081 8.256885 -7.183033 0.066100 -0.000000 -15.364600 11.156000 -3.291457 -2.173691 -5.310787 -14.757923 0.798759 -1.121264 -3.358361 49.439671 -1.803608 -2.112502 28.882976 -0.391900 -0.000000 -63.533600
4.944526 16.929438 0.995679 15.334258 80.657513 16.140482 -10.190363 1.459299 0.862862 -15.846170 7.705258 -25.691003 -2.200304 0.827915 26.133918 1.475138 8.173349 -8.330875 -0.136700 -0.000001 -13.890900 11.262578 -3.120823 -2.338068 -5.288997 -15.267626 -1.042906 -1.256065 -3.502738 52.363073 -2.082731 -5.695327 26.798253 -2.273500 -0.000000 -58.515401
5.175444 16.933258 1.009213 16.575031 80.906755 17.293650 -10.160051 1.504896 0.845017 -15.925178 7.384563 -24.667549 -2.219265 0.827211 26.516602 1.503235 8.109106 -9.444981 -0.331900 0.000000 -12.697400 11.348859 -2.952183 -2.488000 -5.107940 -15.658362 -2.943994 -1.378163 -3.653920 55.015607 -2.320516 -8.842860 24.082692 -3.700300 0.000000 -53.720800
5.406193 16.941156 1.021795 17.515182 81.092003 18.178685 -10.130061 1.551220 0.846577 -15.951989 6.997356 -23.531717 -2.237815 0.811620 26.658813 1.537891 8.091208 -10.466228 -0.511900 0.000000 -11.832400 11.415394 -2.787011 -2.616432 -4.787362 -15.920119 -4.899370 -1.483448 -3.804482 57.366821 -2.506610 -11.384920 20.878580 -4.562100 0.000000 -49.038300
5.637255 16.953442 1.032956 18.004173 81.201004 18.650528 -10.106309 1.600146 0.864935 -15.918367 6.582739 -22.317949 -2.252770 0.784091 26.576401 1.578641 8.131004 -11.354838 -0.672100 -0.000000 -11.311501 11.457896 -2.626552 -2.709647 -4.312292 -16.024328 -6.909275 -1.565568 -3.942376 59.384438 -2.636814 -13.264094 17.385759 -4.871800 0.000000 -44.682100
5.868835 16.969986 1.043268 18.126603 81.240475 18.786978 -10.087360 1.652848 0.893618 -15.846919 6.165727 -21.028130 -2.262839 0.745435 26.269068 1.625123 8.241172 -12.078385 -0.809700 0.000000 -11.122200 11.479441 -2.470255 -2.767590 -3.724828 -15.990667 -8.951948 -1.615441 -4.062239 61.048394 -2.703294 -14.443038 13.749432 -4.693800 0.000000 -40.385500
6.100949 16.990576 1.052820 17.874133 81.219276 18.576073 -10.075194 1.709525 0.926885 -15.739068 5.783876 -19.683628 -2.266777 0.697107 25.756013 1.675061 8.415350 -12.627368 -0.923500 0.000000 -11.220600 11.479269 -2.318304 -2.786224 -3.035342 -15.825481 -11.006213 -1.625626 -4.157135 62.333982 -2.706675 -14.970721 10.160460 -4.171200 0.000000 -36.317300
6.333547 17.014716 1.061877 17.301998 81.153241 18.067169 -10.070314 1.770386 0.958833 -15.599586 5.468154 -18.297089 -2.264802 0.640123 25.054398 1.725444 8.637897 -13.005581 -1.012800 0.000000 -11.543400 11.457820 -2.169756 -2.766618 -2.263504 -15.550611 -13.043999 -1.592034 -4.222755 63.220319 -2.651760 -14.931407 6.796036 -3.465700 0.000000 -32.659700
6.566453 17.041782 1.070762 16.480260 81.062866 17.322743 -10.072927 1.834973 0.983736 -15.430629 5.243627 -16.876774 -2.258025 0.575280 24.182972 1.772476 8.883396 -13.229238 -1.077500 0.000000 -12.018200 11.415818 -2.023722 -2.712937 -1.427239 -15.194562 -15.034855 -1.515356 -4.257054 63.690413 -2.548747 -14.441187 3.817770 -2.728901 -0.000000 -29.693500
6.799456 17.070977 1.079808 15.483647 80.971196 16.409792 -10.083112 1.902785 0.997429 -15.232354 5.126814 -15.426711 -2.248234 0.503180 23.159540 1.812063 9.120978 -13.322620 -1.118100 -0.000000 -12.574400 11.354073 -1.879843 -2.631530 -0.541859 -14.789715 -16.949140 -1.400823 -4.259962 63.735129 -2.411665 -13.633131 1.341742 -2.071400 0.000000 -27.657300
7.032378 17.101370 1.089336 14.384946 80.901445 15.393421 -10.100659 1.973542 0.997930 -15.004860 5.123874 -13.947847 -2.237570 0.424435 22.001620 1.840068 9.317474 -13.313245 -1.135900 -0.000000 -13.152199 11.273559 -1.738476 -2.529959 0.379381 -14.368887 -18.760891 -1.255973 -4.233037 63.355435 -2.256205 -12.642068 -0.586352 -1.549000 0.000000 -26.620500
7.265107 17.131964 1.099667 13.245546 80.874157 14.330106 -10.125036 2.047258 0.985273 -14.748475 5.230515 -12.440220 -2.228206 0.339713 20.724946 1.852754 9.441637 -13.227266 -1.132800 -0.000001 -13.711100 11.175298 -1.600344 -2.416463 1.325977 -13.961239 -20.449305 -1.087765 -4.178883 62.563124 -2.097600 -11.591060 -2.002132 -1.168400 -0.000000 -26.393600
7.497687 17.161715 1.111062 12.113814 80.906853 13.266277 -10.155423 2.124260 0.961645 -14.464007 5.433194 -10.904817 -2.221894 0.249815 19.345167 1.847119 9.467342 -13.086058 -1.110900 -0.000000 -14.234800 11.060359 -1.466337 -2.298099 2.289134 -13.588336 -22.000779 -0.900851 -4.100343 61.378453 -1.949099 -10.581852 -3.003571 -0.907001 0.000000 -26.620200
7.730268 17.189667 1.123771 11.021876 81.011891 12.235149 -10.190836 2.205152 0.931168 -14.152926 5.711404 -9.345427 -2.219598 0.155734 17.878563 1.821075 9.376082 -12.902226 -1.072100 0.000000 -14.734300 10.929791 -1.337468 -2.179243 3.261305 -13.261527 -23.408433 -0.697388 -3.999720 59.825307 -1.820999 -9.689452 -3.717589 -0.732100 -0.000000 -26.937400
7.963109 17.214997 1.137932 9.989193 81.196732 11.261066 -10.230220 2.290633 0.899098 -13.817530 6.040419 -7.770731 -2.221428 0.058748 16.343459 1.773670 9.158547 -12.679088 -1.017100 -0.000000 -15.246800 10.784579 -1.214474 -2.061007 4.235224 -12.981097 -24.672950 -0.477533 -3.878347 57.927927 -1.720033 -8.958557 -4.273774 -0.613600 -0.000000 -27.062200
8.196606 17.237049 1.153638 9.019663 81.463439 10.357039 -10.272684 2.381304 0.870667 -13.460078 6.394590 -6.195076 -2.226655 -0.039434 14.761122 1.705102 8.814921 -12.410929 -0.946400 -0.000000 -15.831600 10.625536 -1.097372 -1.941567 5.203479 -12.737591 -25.801782 -0.240431 -3.736171 55.706614 -1.649916 -8.406919 -4.779784 -0.528399 -0.000000 -26.862601
8.431054 17.255376 1.170911 8.110989 81.809156 9.530161 -10.317595 2.477769 0.850677 -13.083172 6.751862 -4.637508 -2.234004 -0.136663 13.156536 1.616568 8.353662 -12.085117 -0.860199 -0.000000 -16.561900 10.453373 -0.986073 -1.816157 6.157549 -12.515362 -26.805874 0.015149 -3.571692 53.176812 -1.611861 -8.028679 -5.314258 -0.460100 0.000000 -26.305600
8.666824 17.269786 1.189718 7.251972 82.227645 8.779149 -10.364647 2.580547 0.842781 -12.689288 7.095722 -3.121426 -2.241968 -0.230280 11.559495 1.510134 7.789504 -11.685761 -0.759100 0.000000 -17.511400 10.268740 -0.880409 -1.677613 7.088283 -12.294411 -27.697757 0.289837 -3.381723 50.346698 -1.605521 -7.802765 -5.915906 -0.398300 0.000000 -25.463300
8.904073 17.280285 1.209984 6.429128 82.709091 8.098934 -10.413775 2.689871 0.847810 -12.280667 7.419294 -1.673091 -2.249431 -0.317140 10.004305 1.388457 7.140081 -11.198780 -0.645601 0.000000 -18.739701 10.072699 -0.779929 -1.517867 7.984940 -12.053433 -28.486978 0.582683 -3.161286 47.215411 -1.629615 -7.702537 -6.579371 -0.339100 -0.000000 -24.519600
